<?xml version="1.0" encoding="utf-8"?>
<!-- Generator: Adobe Illustrator 18.0.0, SVG Export Plug-In . SVG Version: 6.00 Build 0)  -->
<!DOCTYPE svg PUBLIC "-//W3C//DTD SVG 1.1//EN" "http://www.w3.org/Graphics/SVG/1.1/DTD/svg11.dtd">
<svg version="1.1" id="Layer_1" xmlns="http://www.w3.org/2000/svg" xmlns:xlink="http://www.w3.org/1999/xlink" x="0px" y="0px"
	 viewBox="0 0 612 792" enable-background="new 0 0 612 792" xml:space="preserve">
<circle fill="none" stroke="#5DC66C" stroke-width="29" stroke-miterlimit="10" cx="305.4" cy="417.6" r="289.4"/>
<path fill="#5DC66C" d="M248.8,511.9L237,494.6c-3.7-5.4-2.3-12.7,3.1-16.3l178.6-122.1c5.4-3.7,12.7-2.3,16.3,3.1l11.8,17.3
	c3.7,5.4,2.3,12.7-3.1,16.3L265.1,515C259.8,518.6,252.5,517.3,248.8,511.9z"/>
<path fill="#5DC66C" d="M187.7,371.3l18.6-9.6c5.8-3,12.8-0.7,15.8,5L283.7,486c3,5.8,0.7,12.8-5,15.8l-18.6,9.6
	c-5.8,3-12.8,0.7-15.8-5l-61.6-119.3C179.7,381.4,181.9,374.3,187.7,371.3z"/>
</svg>
