<?xml version="1.0" encoding="utf-8"?>
<!-- Generator: Adobe Illustrator 18.0.0, SVG Export Plug-In . SVG Version: 6.00 Build 0)  -->
<!DOCTYPE svg PUBLIC "-//W3C//DTD SVG 1.1//EN" "http://www.w3.org/Graphics/SVG/1.1/DTD/svg11.dtd">
<svg version="1.1" id="Layer_1" xmlns="http://www.w3.org/2000/svg" xmlns:xlink="http://www.w3.org/1999/xlink" x="0px" y="0px"
	 viewBox="0 0 612 792" enable-background="new 0 0 612 792" xml:space="preserve">
<polygon fill="#FFFFFF" points="168.6,186.1 299.3,22.2 446.6,164.7 471.9,362.7 471.9,477.6 547.2,520.3 577.3,604.3 513.9,750 
	438.7,674.8 180.5,665.3 111.6,757.9 22.9,588.5 66.4,525.1 121.9,488.7 144,469.7 169.4,449.1 131.4,431.6 133.7,371.4 
	152.7,188.5 "/>
<g id="Your_Icon">
	<g>
		<path fill="#DDDDDD" d="M578.8,516.4c-20.6-18.2-44.4-34.1-70.5-47.5c-13.5-6.3-17.4-13.5-15.8-25.3c8.7-69.7,9.5-139.4-9.5-208.3
			C459.3,149.7,407,74.4,321.4,4c-7.9-6.3-23-7.1-34.8,2.4c-38.8,31.7-71.3,65.7-98.2,102.2c-47.5,65.7-70.5,137-76.8,210.7
			c-4,47.5-0.8,95,5.5,141.8c0,2.4-1.6,5.5-4,7.1C91,482.3,67.2,496.6,45,511.6c-26.1,18.2-39.6,42-40.4,68.1
			c-0.8,20.6,2.4,40.4,8.7,60.2c15.8,48.3,42,94.2,71.3,139.4c2.4,3.2,5.5,7.1,9.5,8.7c12.7,6.3,26.9,3.2,34.8-7.9
			c20.6-29.3,41.2-58.6,61-87.1c2.4-4,5.5-5.5,11.9-5.5c26.9,0,53.1,0,80,0v80c0,13.5,11.1,24.6,24.6,24.6
			c13.5,0,24.6-11.1,24.6-24.6v-80c27.7,0,55.4,0,82.4,0c6.3,0,8.7,1.6,11.1,5.5c18.2,26.9,37.2,53.1,56.2,80
			c2.4,4,6.3,7.9,11.1,10.3c13.5,6.3,27.7,2.4,34.8-9.5c15.8-26.9,32.5-53.9,46.7-80.8c16.6-32.5,29.3-65.7,32.5-100.6
			C608.9,563.9,603.4,537.8,578.8,516.4z M154.3,670c-15,21.4-30.1,42.8-45.9,65.7c-26.1-44.4-50.7-87.9-56.2-135.4
			c-2.4-17.4-2.4-34.8,11.1-50.7c11.1-12.7,41.2-34.8,60.2-43.6c2.4,11.1,4.8,22.2,7.1,33.3c8.7,41.2,16.6,82.4,24.6,122.8
			C155.9,665.3,155.9,668.4,154.3,670z M426.8,561.5c-5.5,30.1-11.1,59.4-16.6,89.5c0,0.8-0.8,1.6-0.8,3.2c-26.1,0-52.3,0-79.2,0
			V486.3c0-13.5-11.1-24.6-24.6-24.6c-13.5,0-24.6,11.1-24.6,24.6v167.9c-26.9,0-54.6,0-81.6,0c-4.8-24.6-10.3-48.3-14.3-71.3
			c-9.5-52.3-19.8-105.3-26.1-157.6c-8.7-74.4-4-148.1,25.3-220.2c22.2-54.6,57-103.8,105.3-148.1c4.8-4,8.7-7.9,12.7-11.9
			c0,0,0.8-0.8,2.4-0.8c8.7,5.5,16.6,12.7,24.6,19.8c40.4,39.6,70.5,83.2,91.1,129.9c20.6,48.3,30.1,98.2,30.9,148.9
			C452.9,416.6,440.2,488.7,426.8,561.5z M560.6,590c-2.4,32.5-15.8,63.4-30.9,93.5c-7.1,15-16.6,30.1-25.3,46.7
			c-16.6-23.8-31.7-45.1-46.7-66.5c-0.8-1.6-0.8-4-0.8-5.5c10.3-51.5,20.6-102.2,30.9-153.6c0-1.6,0.8-3.2,1.6-4.8
			c23.8,14.3,45.9,27.7,61.8,46.7C561.4,559.9,561.4,575,560.6,590z"/>
		<path fill="#DDDDDD" d="M307.2,219.4c-19,0-38,7.1-52.3,20.6c-14.3,12.7-23,32.5-23.8,52.3c-0.8,20.6,6.3,41.2,19.8,55.4
			c15,16.6,35.6,25.3,56.2,25.3c19,0,38-7.9,53.1-21.4c30.1-27.7,31.7-77.6,4-107.7C348.4,228.1,328.6,219.4,307.2,219.4z
			 M284.2,270.9c6.3-5.5,14.3-8.7,23-8.7c9.5,0,18.2,4,25.3,11.1c12.7,13.5,11.9,35.6-1.6,48.3c-6.3,6.3-15,9.5-23,9.5
			c-9.5,0-17.4-4-24.6-11.1c-6.3-6.3-9.5-15.8-8.7-25.3C273.9,285.1,277.9,276.4,284.2,270.9z"/>
	</g>
</g>
</svg>
